<mxfile host="app.diagrams.net" agent="Mozilla/5.0 (Windows NT 10.0; Win64; x64) AppleWebKit/537.36 (KHTML, like Gecko) Chrome/137.0.0.0 Safari/537.36 Edg/137.0.0.0" version="27.1.6">
  <diagram name="Page-1" id="SACBxesD4o3cJSUfkJP_">
    <mxGraphModel dx="864" dy="482" grid="1" gridSize="10" guides="1" tooltips="1" connect="1" arrows="1" fold="1" page="1" pageScale="1" pageWidth="850" pageHeight="1100" math="0" shadow="0">
      <root>
        <mxCell id="0" />
        <mxCell id="1" parent="0" />
        <mxCell id="ItQG6kN81yulGajI3oMc-2" value=":Object" style="shape=umlLifeline;perimeter=lifelinePerimeter;whiteSpace=wrap;html=1;container=1;collapsible=0;recursiveResize=0;outlineConnect=0;rounded=1;shadow=0;comic=0;labelBackgroundColor=none;strokeWidth=1;fontFamily=Verdana;fontSize=12;align=center;" vertex="1" parent="1">
          <mxGeometry x="160" y="70" width="100" height="580" as="geometry" />
        </mxCell>
        <mxCell id="ItQG6kN81yulGajI3oMc-3" value="" style="html=1;points=[];perimeter=orthogonalPerimeter;rounded=0;shadow=0;comic=0;labelBackgroundColor=none;strokeWidth=1;fontFamily=Verdana;fontSize=12;align=center;" vertex="1" parent="ItQG6kN81yulGajI3oMc-2">
          <mxGeometry x="45" y="100" width="10" height="230" as="geometry" />
        </mxCell>
        <mxCell id="ItQG6kN81yulGajI3oMc-4" value=":Object" style="shape=umlLifeline;perimeter=lifelinePerimeter;whiteSpace=wrap;html=1;container=1;collapsible=0;recursiveResize=0;outlineConnect=0;rounded=1;shadow=0;comic=0;labelBackgroundColor=none;strokeWidth=1;fontFamily=Verdana;fontSize=12;align=center;" vertex="1" parent="1">
          <mxGeometry x="320" y="70" width="100" height="580" as="geometry" />
        </mxCell>
        <mxCell id="ItQG6kN81yulGajI3oMc-5" value="" style="html=1;points=[];perimeter=orthogonalPerimeter;rounded=0;shadow=0;comic=0;labelBackgroundColor=none;strokeWidth=1;fontFamily=Verdana;fontSize=12;align=center;" vertex="1" parent="ItQG6kN81yulGajI3oMc-4">
          <mxGeometry x="45" y="120" width="10" height="200" as="geometry" />
        </mxCell>
        <mxCell id="ItQG6kN81yulGajI3oMc-6" value=":Object" style="shape=umlLifeline;perimeter=lifelinePerimeter;whiteSpace=wrap;html=1;container=1;collapsible=0;recursiveResize=0;outlineConnect=0;rounded=1;shadow=0;comic=0;labelBackgroundColor=none;strokeWidth=1;fontFamily=Verdana;fontSize=12;align=center;" vertex="1" parent="1">
          <mxGeometry x="460" y="70" width="100" height="580" as="geometry" />
        </mxCell>
        <mxCell id="ItQG6kN81yulGajI3oMc-7" value=":Object" style="shape=umlLifeline;perimeter=lifelinePerimeter;whiteSpace=wrap;html=1;container=1;collapsible=0;recursiveResize=0;outlineConnect=0;rounded=1;shadow=0;comic=0;labelBackgroundColor=none;strokeWidth=1;fontFamily=Verdana;fontSize=12;align=center;" vertex="1" parent="1">
          <mxGeometry x="600" y="70" width="100" height="580" as="geometry" />
        </mxCell>
        <mxCell id="ItQG6kN81yulGajI3oMc-8" value=":Object" style="shape=umlLifeline;perimeter=lifelinePerimeter;whiteSpace=wrap;html=1;container=1;collapsible=0;recursiveResize=0;outlineConnect=0;rounded=1;shadow=0;comic=0;labelBackgroundColor=none;strokeWidth=1;fontFamily=Verdana;fontSize=12;align=center;" vertex="1" parent="1">
          <mxGeometry x="740" y="70" width="100" height="580" as="geometry" />
        </mxCell>
        <mxCell id="ItQG6kN81yulGajI3oMc-9" value=":Object" style="shape=umlLifeline;perimeter=lifelinePerimeter;whiteSpace=wrap;html=1;container=1;collapsible=0;recursiveResize=0;outlineConnect=0;rounded=1;shadow=0;comic=0;labelBackgroundColor=none;strokeWidth=1;fontFamily=Verdana;fontSize=12;align=center;" vertex="1" parent="1">
          <mxGeometry x="880" y="70" width="100" height="580" as="geometry" />
        </mxCell>
        <mxCell id="ItQG6kN81yulGajI3oMc-10" value=":Object" style="shape=umlLifeline;perimeter=lifelinePerimeter;whiteSpace=wrap;html=1;container=1;collapsible=0;recursiveResize=0;outlineConnect=0;rounded=1;shadow=0;comic=0;labelBackgroundColor=none;strokeWidth=1;fontFamily=Verdana;fontSize=12;align=center;" vertex="1" parent="1">
          <mxGeometry x="30" y="80" width="100" height="580" as="geometry" />
        </mxCell>
        <mxCell id="ItQG6kN81yulGajI3oMc-11" value="" style="html=1;points=[];perimeter=orthogonalPerimeter;rounded=0;shadow=0;comic=0;labelBackgroundColor=none;strokeWidth=1;fontFamily=Verdana;fontSize=12;align=center;" vertex="1" parent="ItQG6kN81yulGajI3oMc-10">
          <mxGeometry x="45" y="100" width="10" height="440" as="geometry" />
        </mxCell>
        <mxCell id="ItQG6kN81yulGajI3oMc-12" value="" style="html=1;points=[];perimeter=orthogonalPerimeter;rounded=0;shadow=0;comic=0;labelBackgroundColor=none;strokeWidth=1;fontFamily=Verdana;fontSize=12;align=center;" vertex="1" parent="1">
          <mxGeometry x="505" y="210" width="10" height="180" as="geometry" />
        </mxCell>
        <mxCell id="ItQG6kN81yulGajI3oMc-13" value="dispatch" style="html=1;verticalAlign=bottom;endArrow=block;labelBackgroundColor=none;fontFamily=Verdana;fontSize=12;edgeStyle=elbowEdgeStyle;elbow=vertical;rounded=0;" edge="1" parent="1" source="ItQG6kN81yulGajI3oMc-5" target="ItQG6kN81yulGajI3oMc-12">
          <mxGeometry relative="1" as="geometry">
            <mxPoint x="430" y="210" as="sourcePoint" />
            <Array as="points">
              <mxPoint x="380" y="210" />
            </Array>
          </mxGeometry>
        </mxCell>
        <mxCell id="ItQG6kN81yulGajI3oMc-14" value="" style="html=1;points=[];perimeter=orthogonalPerimeter;rounded=0;shadow=0;comic=0;labelBackgroundColor=none;strokeWidth=1;fontFamily=Verdana;fontSize=12;align=center;" vertex="1" parent="1">
          <mxGeometry x="645" y="220" width="10" height="40" as="geometry" />
        </mxCell>
        <mxCell id="ItQG6kN81yulGajI3oMc-15" value="dispatch" style="html=1;verticalAlign=bottom;endArrow=block;entryX=0;entryY=0;labelBackgroundColor=none;fontFamily=Verdana;fontSize=12;edgeStyle=elbowEdgeStyle;elbow=vertical;rounded=0;" edge="1" parent="1" source="ItQG6kN81yulGajI3oMc-12" target="ItQG6kN81yulGajI3oMc-14">
          <mxGeometry relative="1" as="geometry">
            <mxPoint x="570" y="220" as="sourcePoint" />
          </mxGeometry>
        </mxCell>
        <mxCell id="ItQG6kN81yulGajI3oMc-16" value="return" style="html=1;verticalAlign=bottom;endArrow=open;dashed=1;endSize=8;labelBackgroundColor=none;fontFamily=Verdana;fontSize=12;edgeStyle=elbowEdgeStyle;elbow=vertical;rounded=0;" edge="1" parent="1" source="ItQG6kN81yulGajI3oMc-14" target="ItQG6kN81yulGajI3oMc-12">
          <mxGeometry relative="1" as="geometry">
            <mxPoint x="570" y="296" as="targetPoint" />
            <Array as="points">
              <mxPoint x="590" y="250" />
              <mxPoint x="620" y="250" />
            </Array>
          </mxGeometry>
        </mxCell>
        <mxCell id="ItQG6kN81yulGajI3oMc-17" value="" style="html=1;points=[];perimeter=orthogonalPerimeter;rounded=0;shadow=0;comic=0;labelBackgroundColor=none;strokeWidth=1;fontFamily=Verdana;fontSize=12;align=center;" vertex="1" parent="1">
          <mxGeometry x="505" y="430" width="10" height="140" as="geometry" />
        </mxCell>
        <mxCell id="ItQG6kN81yulGajI3oMc-18" value="dispatch" style="html=1;verticalAlign=bottom;endArrow=block;entryX=0;entryY=0;labelBackgroundColor=none;fontFamily=Verdana;fontSize=12;rounded=0;" edge="1" parent="1" source="ItQG6kN81yulGajI3oMc-11" target="ItQG6kN81yulGajI3oMc-17">
          <mxGeometry relative="1" as="geometry">
            <mxPoint x="430" y="410" as="sourcePoint" />
          </mxGeometry>
        </mxCell>
        <mxCell id="ItQG6kN81yulGajI3oMc-19" value="" style="html=1;points=[];perimeter=orthogonalPerimeter;rounded=0;shadow=0;comic=0;labelBackgroundColor=none;strokeColor=#000000;strokeWidth=1;fillColor=#FFFFFF;fontFamily=Verdana;fontSize=12;fontColor=#000000;align=center;" vertex="1" parent="1">
          <mxGeometry x="925" y="450" width="10" height="30" as="geometry" />
        </mxCell>
        <mxCell id="ItQG6kN81yulGajI3oMc-20" value="dispatch" style="html=1;verticalAlign=bottom;endArrow=block;entryX=0;entryY=0;labelBackgroundColor=none;fontFamily=Verdana;fontSize=12;rounded=0;" edge="1" parent="1" source="ItQG6kN81yulGajI3oMc-17" target="ItQG6kN81yulGajI3oMc-19">
          <mxGeometry relative="1" as="geometry">
            <mxPoint x="850" y="330" as="sourcePoint" />
          </mxGeometry>
        </mxCell>
        <mxCell id="ItQG6kN81yulGajI3oMc-21" value="return" style="html=1;verticalAlign=bottom;endArrow=open;dashed=1;endSize=8;exitX=0;exitY=0.95;labelBackgroundColor=none;fontFamily=Verdana;fontSize=12;rounded=0;" edge="1" parent="1" source="ItQG6kN81yulGajI3oMc-19" target="ItQG6kN81yulGajI3oMc-17">
          <mxGeometry relative="1" as="geometry">
            <mxPoint x="850" y="406" as="targetPoint" />
          </mxGeometry>
        </mxCell>
        <mxCell id="ItQG6kN81yulGajI3oMc-22" value="" style="html=1;points=[];perimeter=orthogonalPerimeter;rounded=0;shadow=0;comic=0;labelBackgroundColor=none;strokeWidth=1;fontFamily=Verdana;fontSize=12;align=center;" vertex="1" parent="1">
          <mxGeometry x="790" y="540" width="10" height="60" as="geometry" />
        </mxCell>
        <mxCell id="ItQG6kN81yulGajI3oMc-23" value="dispatch" style="html=1;verticalAlign=bottom;endArrow=block;entryX=0;entryY=0;labelBackgroundColor=none;fontFamily=Verdana;fontSize=12;edgeStyle=elbowEdgeStyle;elbow=vertical;rounded=0;" edge="1" parent="1" source="ItQG6kN81yulGajI3oMc-30" target="ItQG6kN81yulGajI3oMc-22">
          <mxGeometry relative="1" as="geometry">
            <mxPoint x="720" y="540" as="sourcePoint" />
          </mxGeometry>
        </mxCell>
        <mxCell id="ItQG6kN81yulGajI3oMc-24" value="return" style="html=1;verticalAlign=bottom;endArrow=open;dashed=1;endSize=8;labelBackgroundColor=none;fontFamily=Verdana;fontSize=12;edgeStyle=elbowEdgeStyle;elbow=vertical;rounded=0;" edge="1" parent="1" source="ItQG6kN81yulGajI3oMc-22" target="ItQG6kN81yulGajI3oMc-11">
          <mxGeometry relative="1" as="geometry">
            <mxPoint x="720" y="616" as="targetPoint" />
            <Array as="points">
              <mxPoint x="490" y="590" />
            </Array>
          </mxGeometry>
        </mxCell>
        <mxCell id="ItQG6kN81yulGajI3oMc-25" value="dispatch" style="html=1;verticalAlign=bottom;endArrow=block;entryX=0;entryY=0;labelBackgroundColor=none;fontFamily=Verdana;fontSize=12;edgeStyle=elbowEdgeStyle;elbow=horizontal;rounded=0;" edge="1" parent="1" source="ItQG6kN81yulGajI3oMc-11" target="ItQG6kN81yulGajI3oMc-3">
          <mxGeometry relative="1" as="geometry">
            <mxPoint x="140" y="180" as="sourcePoint" />
          </mxGeometry>
        </mxCell>
        <mxCell id="ItQG6kN81yulGajI3oMc-26" value="dispatch" style="html=1;verticalAlign=bottom;endArrow=block;entryX=0;entryY=0;labelBackgroundColor=none;fontFamily=Verdana;fontSize=12;edgeStyle=elbowEdgeStyle;elbow=vertical;rounded=0;" edge="1" parent="1" source="ItQG6kN81yulGajI3oMc-3" target="ItQG6kN81yulGajI3oMc-5">
          <mxGeometry relative="1" as="geometry">
            <mxPoint x="290" y="190" as="sourcePoint" />
          </mxGeometry>
        </mxCell>
        <mxCell id="ItQG6kN81yulGajI3oMc-27" value="" style="html=1;points=[];perimeter=orthogonalPerimeter;rounded=0;shadow=0;comic=0;labelBackgroundColor=none;strokeWidth=1;fontFamily=Verdana;fontSize=12;align=center;" vertex="1" parent="1">
          <mxGeometry x="510" y="290" width="10" height="70" as="geometry" />
        </mxCell>
        <mxCell id="ItQG6kN81yulGajI3oMc-28" value="dispatch" style="html=1;verticalAlign=bottom;endArrow=block;labelBackgroundColor=none;fontFamily=Verdana;fontSize=12;elbow=vertical;edgeStyle=orthogonalEdgeStyle;curved=1;entryX=1;entryY=0.286;entryPerimeter=0;exitX=1.038;exitY=0.345;exitPerimeter=0;rounded=0;" edge="1" parent="1" source="ItQG6kN81yulGajI3oMc-12" target="ItQG6kN81yulGajI3oMc-27">
          <mxGeometry relative="1" as="geometry">
            <mxPoint x="385" y="220" as="sourcePoint" />
            <mxPoint x="515" y="220" as="targetPoint" />
            <Array as="points">
              <mxPoint x="570" y="272" />
              <mxPoint x="570" y="310" />
            </Array>
          </mxGeometry>
        </mxCell>
        <mxCell id="ItQG6kN81yulGajI3oMc-29" value="dispatch" style="html=1;verticalAlign=bottom;endArrow=block;labelBackgroundColor=none;fontFamily=Verdana;fontSize=12;elbow=vertical;edgeStyle=orthogonalEdgeStyle;curved=1;exitX=1.066;exitY=0.713;exitPerimeter=0;rounded=0;" edge="1" parent="1" source="ItQG6kN81yulGajI3oMc-27">
          <mxGeometry relative="1" as="geometry">
            <mxPoint x="530.3333333333333" y="340" as="sourcePoint" />
            <mxPoint x="515" y="379" as="targetPoint" />
            <Array as="points">
              <mxPoint x="570" y="340" />
              <mxPoint x="570" y="379" />
            </Array>
          </mxGeometry>
        </mxCell>
        <mxCell id="ItQG6kN81yulGajI3oMc-30" value="" style="html=1;points=[];perimeter=orthogonalPerimeter;rounded=0;shadow=0;comic=0;labelBackgroundColor=none;strokeWidth=1;fontFamily=Verdana;fontSize=12;align=center;" vertex="1" parent="1">
          <mxGeometry x="510" y="510" width="10" height="40" as="geometry" />
        </mxCell>
        <mxCell id="ItQG6kN81yulGajI3oMc-31" value="dispatch" style="html=1;verticalAlign=bottom;endArrow=block;labelBackgroundColor=none;fontFamily=Verdana;fontSize=12;elbow=vertical;edgeStyle=orthogonalEdgeStyle;curved=1;entryX=1;entryY=0.286;entryPerimeter=0;exitX=1.038;exitY=0.345;exitPerimeter=0;rounded=0;" edge="1" parent="1">
          <mxGeometry relative="1" as="geometry">
            <mxPoint x="515.3333333333335" y="491" as="sourcePoint" />
            <mxPoint x="520.3333333333335" y="529.3333333333334" as="targetPoint" />
            <Array as="points">
              <mxPoint x="570" y="491" />
              <mxPoint x="570" y="529" />
            </Array>
          </mxGeometry>
        </mxCell>
        <mxCell id="ItQG6kN81yulGajI3oMc-32" value="Note" style="shape=note;whiteSpace=wrap;html=1;size=14;verticalAlign=top;align=left;spacingTop=-6;rounded=0;shadow=0;comic=0;labelBackgroundColor=none;strokeWidth=1;fontFamily=Verdana;fontSize=12" vertex="1" parent="1">
          <mxGeometry x="20" y="20" width="100" height="35" as="geometry" />
        </mxCell>
        <mxCell id="ItQG6kN81yulGajI3oMc-33" value="Note" style="shape=note;whiteSpace=wrap;html=1;size=14;verticalAlign=top;align=left;spacingTop=-6;rounded=0;shadow=0;comic=0;labelBackgroundColor=none;strokeWidth=1;fontFamily=Verdana;fontSize=12" vertex="1" parent="1">
          <mxGeometry x="160" y="20" width="100" height="35" as="geometry" />
        </mxCell>
        <mxCell id="ItQG6kN81yulGajI3oMc-34" value="Note" style="shape=note;whiteSpace=wrap;html=1;size=14;verticalAlign=top;align=left;spacingTop=-6;rounded=0;shadow=0;comic=0;labelBackgroundColor=none;strokeWidth=1;fontFamily=Verdana;fontSize=12" vertex="1" parent="1">
          <mxGeometry x="320" y="20" width="100" height="35" as="geometry" />
        </mxCell>
        <mxCell id="ItQG6kN81yulGajI3oMc-35" value="Note" style="shape=note;whiteSpace=wrap;html=1;size=14;verticalAlign=top;align=left;spacingTop=-6;rounded=0;shadow=0;comic=0;labelBackgroundColor=none;strokeWidth=1;fontFamily=Verdana;fontSize=12" vertex="1" parent="1">
          <mxGeometry x="460" y="20" width="100" height="35" as="geometry" />
        </mxCell>
        <mxCell id="ItQG6kN81yulGajI3oMc-36" value="Note" style="shape=note;whiteSpace=wrap;html=1;size=14;verticalAlign=top;align=left;spacingTop=-6;rounded=0;shadow=0;comic=0;labelBackgroundColor=none;strokeWidth=1;fontFamily=Verdana;fontSize=12" vertex="1" parent="1">
          <mxGeometry x="600" y="20" width="100" height="35" as="geometry" />
        </mxCell>
        <mxCell id="ItQG6kN81yulGajI3oMc-37" value="Note" style="shape=note;whiteSpace=wrap;html=1;size=14;verticalAlign=top;align=left;spacingTop=-6;rounded=0;shadow=0;comic=0;labelBackgroundColor=none;strokeWidth=1;fontFamily=Verdana;fontSize=12" vertex="1" parent="1">
          <mxGeometry x="740" y="20" width="100" height="35" as="geometry" />
        </mxCell>
        <mxCell id="ItQG6kN81yulGajI3oMc-38" value="Note" style="shape=note;whiteSpace=wrap;html=1;size=14;verticalAlign=top;align=left;spacingTop=-6;rounded=0;shadow=0;comic=0;labelBackgroundColor=none;strokeWidth=1;fontFamily=Verdana;fontSize=12" vertex="1" parent="1">
          <mxGeometry x="880" y="20" width="100" height="35" as="geometry" />
        </mxCell>
        <mxCell id="ItQG6kN81yulGajI3oMc-39" value="Thread 1" style="swimlane;whiteSpace=wrap" vertex="1" parent="1">
          <mxGeometry x="20" y="680" width="280" height="570" as="geometry" />
        </mxCell>
        <mxCell id="ItQG6kN81yulGajI3oMc-40" value="" style="ellipse;shape=startState;fillColor=#000000;strokeColor=#ff0000;" vertex="1" parent="ItQG6kN81yulGajI3oMc-39">
          <mxGeometry x="100" y="40" width="30" height="30" as="geometry" />
        </mxCell>
        <mxCell id="ItQG6kN81yulGajI3oMc-41" value="" style="edgeStyle=elbowEdgeStyle;elbow=horizontal;verticalAlign=bottom;endArrow=open;endSize=8;strokeColor=#FF0000;endFill=1;rounded=0" edge="1" parent="ItQG6kN81yulGajI3oMc-39" source="ItQG6kN81yulGajI3oMc-40" target="ItQG6kN81yulGajI3oMc-42">
          <mxGeometry x="100" y="40" as="geometry">
            <mxPoint x="115" y="110" as="targetPoint" />
          </mxGeometry>
        </mxCell>
        <mxCell id="ItQG6kN81yulGajI3oMc-42" value="idle" style="" vertex="1" parent="ItQG6kN81yulGajI3oMc-39">
          <mxGeometry x="60" y="110" width="110" height="50" as="geometry" />
        </mxCell>
        <mxCell id="ItQG6kN81yulGajI3oMc-43" value="user action" style="" vertex="1" parent="ItQG6kN81yulGajI3oMc-39">
          <mxGeometry x="60" y="220" width="110" height="50" as="geometry" />
        </mxCell>
        <mxCell id="ItQG6kN81yulGajI3oMc-44" value="" style="endArrow=open;strokeColor=#FF0000;endFill=1;rounded=0" edge="1" parent="ItQG6kN81yulGajI3oMc-39" source="ItQG6kN81yulGajI3oMc-42" target="ItQG6kN81yulGajI3oMc-43">
          <mxGeometry relative="1" as="geometry" />
        </mxCell>
        <mxCell id="ItQG6kN81yulGajI3oMc-45" value="post command" style="" vertex="1" parent="ItQG6kN81yulGajI3oMc-39">
          <mxGeometry x="60" y="325" width="110" height="50" as="geometry" />
        </mxCell>
        <mxCell id="ItQG6kN81yulGajI3oMc-46" value="" style="endArrow=open;strokeColor=#FF0000;endFill=1;rounded=0" edge="1" parent="ItQG6kN81yulGajI3oMc-39" source="ItQG6kN81yulGajI3oMc-43" target="ItQG6kN81yulGajI3oMc-45">
          <mxGeometry relative="1" as="geometry" />
        </mxCell>
        <mxCell id="ItQG6kN81yulGajI3oMc-47" value="" style="edgeStyle=elbowEdgeStyle;elbow=horizontal;strokeColor=#FF0000;endArrow=open;endFill=1;rounded=0" edge="1" parent="ItQG6kN81yulGajI3oMc-39" source="ItQG6kN81yulGajI3oMc-45" target="ItQG6kN81yulGajI3oMc-42">
          <mxGeometry width="100" height="100" relative="1" as="geometry">
            <mxPoint x="160" y="290" as="sourcePoint" />
            <mxPoint x="260" y="190" as="targetPoint" />
            <Array as="points">
              <mxPoint x="30" y="250" />
            </Array>
          </mxGeometry>
        </mxCell>
        <mxCell id="ItQG6kN81yulGajI3oMc-48" value="Thread 2" style="swimlane;whiteSpace=wrap" vertex="1" parent="1">
          <mxGeometry x="300" y="680" width="280" height="570" as="geometry" />
        </mxCell>
        <mxCell id="ItQG6kN81yulGajI3oMc-49" value="" style="ellipse;shape=startState;fillColor=#000000;strokeColor=#ff0000;" vertex="1" parent="ItQG6kN81yulGajI3oMc-48">
          <mxGeometry x="60" y="40" width="30" height="30" as="geometry" />
        </mxCell>
        <mxCell id="ItQG6kN81yulGajI3oMc-50" value="" style="edgeStyle=elbowEdgeStyle;elbow=horizontal;verticalAlign=bottom;endArrow=open;endSize=8;strokeColor=#FF0000;endFill=1;rounded=0" edge="1" parent="ItQG6kN81yulGajI3oMc-48" source="ItQG6kN81yulGajI3oMc-49" target="ItQG6kN81yulGajI3oMc-51">
          <mxGeometry x="40" y="20" as="geometry">
            <mxPoint x="55" y="90" as="targetPoint" />
          </mxGeometry>
        </mxCell>
        <mxCell id="ItQG6kN81yulGajI3oMc-51" value="idle" style="" vertex="1" parent="ItQG6kN81yulGajI3oMc-48">
          <mxGeometry x="20" y="110" width="110" height="50" as="geometry" />
        </mxCell>
        <mxCell id="ItQG6kN81yulGajI3oMc-52" value="check for &#xa;new commands" style="" vertex="1" parent="ItQG6kN81yulGajI3oMc-48">
          <mxGeometry x="20" y="220" width="110" height="50" as="geometry" />
        </mxCell>
        <mxCell id="ItQG6kN81yulGajI3oMc-53" value="" style="endArrow=open;strokeColor=#FF0000;endFill=1;rounded=0" edge="1" parent="ItQG6kN81yulGajI3oMc-48" source="ItQG6kN81yulGajI3oMc-51" target="ItQG6kN81yulGajI3oMc-52">
          <mxGeometry relative="1" as="geometry" />
        </mxCell>
        <mxCell id="ItQG6kN81yulGajI3oMc-54" value="command queue" style="" vertex="1" parent="ItQG6kN81yulGajI3oMc-48">
          <mxGeometry x="20" y="325" width="110" height="50" as="geometry" />
        </mxCell>
        <mxCell id="ItQG6kN81yulGajI3oMc-55" value="" style="endArrow=open;strokeColor=#FF0000;endFill=1;rounded=0" edge="1" parent="ItQG6kN81yulGajI3oMc-48" source="ItQG6kN81yulGajI3oMc-52" target="ItQG6kN81yulGajI3oMc-54">
          <mxGeometry relative="1" as="geometry" />
        </mxCell>
        <mxCell id="ItQG6kN81yulGajI3oMc-56" value="queue empty" style="rhombus;fillColor=#ffffc0;strokeColor=#ff0000;" vertex="1" parent="ItQG6kN81yulGajI3oMc-48">
          <mxGeometry x="150" y="225" width="80" height="40" as="geometry" />
        </mxCell>
        <mxCell id="ItQG6kN81yulGajI3oMc-57" value="yes" style="edgeStyle=elbowEdgeStyle;elbow=horizontal;align=left;verticalAlign=bottom;endArrow=open;endSize=8;strokeColor=#FF0000;exitX=0.5;exitY=0;endFill=1;rounded=0;entryX=0.75;entryY=0.5;entryPerimeter=0" edge="1" parent="ItQG6kN81yulGajI3oMc-48" source="ItQG6kN81yulGajI3oMc-56" target="ItQG6kN81yulGajI3oMc-60">
          <mxGeometry x="-1" relative="1" as="geometry">
            <mxPoint x="160" y="150" as="targetPoint" />
            <Array as="points">
              <mxPoint x="190" y="180" />
            </Array>
          </mxGeometry>
        </mxCell>
        <mxCell id="ItQG6kN81yulGajI3oMc-58" value="no" style="edgeStyle=elbowEdgeStyle;elbow=horizontal;align=left;verticalAlign=top;endArrow=open;endSize=8;strokeColor=#FF0000;endFill=1;rounded=0" edge="1" parent="ItQG6kN81yulGajI3oMc-48" source="ItQG6kN81yulGajI3oMc-56" target="ItQG6kN81yulGajI3oMc-62">
          <mxGeometry x="-1" relative="1" as="geometry">
            <mxPoint x="190" y="305" as="targetPoint" />
          </mxGeometry>
        </mxCell>
        <mxCell id="ItQG6kN81yulGajI3oMc-59" value="" style="endArrow=open;strokeColor=#FF0000;endFill=1;rounded=0" edge="1" parent="ItQG6kN81yulGajI3oMc-48" source="ItQG6kN81yulGajI3oMc-52" target="ItQG6kN81yulGajI3oMc-56">
          <mxGeometry relative="1" as="geometry" />
        </mxCell>
        <mxCell id="ItQG6kN81yulGajI3oMc-60" value="" style="shape=line;strokeWidth=6;strokeColor=#ff0000;rotation=90" vertex="1" parent="ItQG6kN81yulGajI3oMc-48">
          <mxGeometry x="130" y="127.5" width="50" height="15" as="geometry" />
        </mxCell>
        <mxCell id="ItQG6kN81yulGajI3oMc-61" value="" style="edgeStyle=elbowEdgeStyle;elbow=horizontal;verticalAlign=bottom;endArrow=open;endSize=8;strokeColor=#FF0000;endFill=1;rounded=0" edge="1" parent="ItQG6kN81yulGajI3oMc-48" source="ItQG6kN81yulGajI3oMc-60" target="ItQG6kN81yulGajI3oMc-51">
          <mxGeometry x="130" y="90" as="geometry">
            <mxPoint x="230" y="140" as="targetPoint" />
          </mxGeometry>
        </mxCell>
        <mxCell id="ItQG6kN81yulGajI3oMc-62" value="dispatch&#xa;command&#xa;worker thread" style="" vertex="1" parent="ItQG6kN81yulGajI3oMc-48">
          <mxGeometry x="140" y="325" width="110" height="50" as="geometry" />
        </mxCell>
        <mxCell id="ItQG6kN81yulGajI3oMc-63" value="critical&#xa;section" style="shape=note;whiteSpace=wrap;size=17" vertex="1" parent="ItQG6kN81yulGajI3oMc-48">
          <mxGeometry x="105" y="490" width="100" height="50" as="geometry" />
        </mxCell>
        <mxCell id="ItQG6kN81yulGajI3oMc-64" value="" style="endArrow=none;strokeColor=#FF0000;endFill=0;rounded=0;dashed=1" edge="1" parent="ItQG6kN81yulGajI3oMc-48" source="ItQG6kN81yulGajI3oMc-54" target="ItQG6kN81yulGajI3oMc-63">
          <mxGeometry relative="1" as="geometry" />
        </mxCell>
        <mxCell id="ItQG6kN81yulGajI3oMc-65" value="" style="whiteSpace=wrap;strokeColor=#FF0000;fillColor=#FF0000" vertex="1" parent="ItQG6kN81yulGajI3oMc-48">
          <mxGeometry x="245" y="395" width="5" height="45" as="geometry" />
        </mxCell>
        <mxCell id="ItQG6kN81yulGajI3oMc-66" value="" style="edgeStyle=elbowEdgeStyle;elbow=horizontal;entryX=0;entryY=0.5;strokeColor=#FF0000;endArrow=open;endFill=1;rounded=0" edge="1" parent="ItQG6kN81yulGajI3oMc-48" source="ItQG6kN81yulGajI3oMc-62" target="ItQG6kN81yulGajI3oMc-65">
          <mxGeometry width="100" height="100" relative="1" as="geometry">
            <mxPoint x="60" y="480" as="sourcePoint" />
            <mxPoint x="160" y="380" as="targetPoint" />
            <Array as="points">
              <mxPoint x="195" y="400" />
            </Array>
          </mxGeometry>
        </mxCell>
        <mxCell id="ItQG6kN81yulGajI3oMc-67" value="Thread 3" style="swimlane;whiteSpace=wrap" vertex="1" parent="1">
          <mxGeometry x="580" y="680" width="280" height="570" as="geometry" />
        </mxCell>
        <mxCell id="ItQG6kN81yulGajI3oMc-68" value="process&#xa;command" style="" vertex="1" parent="ItQG6kN81yulGajI3oMc-67">
          <mxGeometry x="90" y="405" width="110" height="50" as="geometry" />
        </mxCell>
        <mxCell id="ItQG6kN81yulGajI3oMc-69" value="" style="edgeStyle=elbowEdgeStyle;elbow=horizontal;strokeColor=#FF0000;endArrow=open;endFill=1;rounded=0;entryX=0.25;entryY=0.5;entryPerimeter=0" edge="1" parent="ItQG6kN81yulGajI3oMc-67" target="ItQG6kN81yulGajI3oMc-60">
          <mxGeometry width="100" height="100" relative="1" as="geometry">
            <mxPoint x="-30" y="410" as="sourcePoint" />
            <mxPoint x="-120" y="120" as="targetPoint" />
            <Array as="points">
              <mxPoint x="-10" y="135" />
            </Array>
          </mxGeometry>
        </mxCell>
        <mxCell id="ItQG6kN81yulGajI3oMc-70" value="" style="edgeStyle=none;strokeColor=#FF0000;endArrow=open;endFill=1;rounded=0" edge="1" parent="ItQG6kN81yulGajI3oMc-67" target="ItQG6kN81yulGajI3oMc-68">
          <mxGeometry width="100" height="100" relative="1" as="geometry">
            <mxPoint x="-30" y="429.5" as="sourcePoint" />
            <mxPoint x="90" y="429.5" as="targetPoint" />
          </mxGeometry>
        </mxCell>
        <mxCell id="ItQG6kN81yulGajI3oMc-71" value="" style="ellipse;shape=endState;fillColor=#000000;strokeColor=#ff0000" vertex="1" parent="ItQG6kN81yulGajI3oMc-67">
          <mxGeometry x="130" y="500" width="30" height="30" as="geometry" />
        </mxCell>
        <mxCell id="ItQG6kN81yulGajI3oMc-72" value="" style="endArrow=open;strokeColor=#FF0000;endFill=1;rounded=0" edge="1" parent="ItQG6kN81yulGajI3oMc-67" source="ItQG6kN81yulGajI3oMc-68" target="ItQG6kN81yulGajI3oMc-71">
          <mxGeometry relative="1" as="geometry" />
        </mxCell>
        <mxCell id="ItQG6kN81yulGajI3oMc-73" value="" style="endArrow=open;strokeColor=#FF0000;endFill=1;rounded=0" edge="1" parent="1" source="ItQG6kN81yulGajI3oMc-45" target="ItQG6kN81yulGajI3oMc-54">
          <mxGeometry relative="1" as="geometry" />
        </mxCell>
      </root>
    </mxGraphModel>
  </diagram>
</mxfile>
